 <svg display="none"
 xmlns="http://www.w3.org/2000/svg">
    <symbol id="facebook" viewBox="0 0 96.124 96.123">
        <g>
	    <path d="M72.089,0.02L59.624,0C45.62,0,36.57,9.285,36.57,23.656v10.907H24.037c-1.083,0-1.96,0.878-1.96,1.961v15.803
		c0,1.083,0.878,1.96,1.96,1.96h12.533v39.876c0,1.083,0.877,1.96,1.96,1.96h16.352c1.083,0,1.96-0.878,1.96-1.96V54.287h14.654
		c1.083,0,1.96-0.877,1.96-1.96l0.006-15.803c0-0.52-0.207-1.018-0.574-1.386c-0.367-0.368-0.867-0.575-1.387-0.575H56.842v-9.246
		c0-4.444,1.059-6.7,6.848-6.7l8.397-0.003c1.082,0,1.959-0.878,1.959-1.96V1.98C74.046,0.899,73.17,0.022,72.089,0.02z"/>
        </g>
    </symbol>
    <symbol id="twitter" viewBox="0 0 512 512">
        <g>
		<path d="M512,97.248c-19.04,8.352-39.328,13.888-60.48,16.576c21.76-12.992,38.368-33.408,46.176-58.016
			c-20.288,12.096-42.688,20.64-66.56,25.408C411.872,60.704,384.416,48,354.464,48c-58.112,0-104.896,47.168-104.896,104.992
			c0,8.32,0.704,16.32,2.432,23.936c-87.264-4.256-164.48-46.08-216.352-109.792c-9.056,15.712-14.368,33.696-14.368,53.056
			c0,36.352,18.72,68.576,46.624,87.232c-16.864-0.32-33.408-5.216-47.424-12.928c0,0.32,0,0.736,0,1.152
			c0,51.008,36.384,93.376,84.096,103.136c-8.544,2.336-17.856,3.456-27.52,3.456c-6.72,0-13.504-0.384-19.872-1.792
			c13.6,41.568,52.192,72.128,98.08,73.12c-35.712,27.936-81.056,44.768-130.144,44.768c-8.608,0-16.864-0.384-25.12-1.44
			C46.496,446.88,101.6,464,161.024,464c193.152,0,298.752-160,298.752-298.688c0-4.64-0.16-9.12-0.384-13.568
			C480.224,136.96,497.728,118.496,512,97.248z"/>
	    </g>
    </symbol>
    <symbol id="linkedin" viewBox="-8 0 512 512">
        <g>
		<path d="m111.398438 160.664062h-96.398438c-8.285156 0-15 6.71875-15 15v321.335938c0 8.285156 6.714844 15 15 15h96.398438c8.285156 0 15-6.714844 15-15v-321.335938c0-8.28125-6.714844-15-15-15zm0 0"/><path d="m63.203125 0c-34.851563 0-63.203125 28.351562-63.203125 63.195312 0 34.851563 28.351562 63.199219 63.203125 63.199219 34.847656 0 63.195313-28.351562 63.195313-63.199219 0-34.84375-28.347657-63.195312-63.195313-63.195312zm0 0"/><path d="m352.410156 158.542969c-22.800781 0-45.273437 5.496093-65.398437 15.777343-.683594-7.652343-7.109375-13.65625-14.941407-13.65625h-96.40625c-8.28125 0-15 6.71875-15 15v321.335938c0 8.285156 6.71875 15 15 15h96.40625c8.285157 0 15-6.714844 15-15v-176.734375c0-22.734375 18.496094-41.230469 41.234376-41.230469 22.730468 0 41.226562 18.496094 41.226562 41.230469v176.734375c0 8.285156 6.71875 15 15 15h96.402344c8.285156 0 15-6.714844 15-15v-194.933594c0-79.140625-64.382813-143.523437-143.523438-143.523437zm0 0"/>
	    </g>
    </symbol>
    <symbol id="star" viewBox="0 0 49.94 49.94">
        <g>
            <path d="M48.856,22.73c0.983-0.958,1.33-2.364,0.906-3.671c-0.425-1.307-1.532-2.24-2.892-2.438l-12.092-1.757
        c-0.515-0.075-0.96-0.398-1.19-0.865L28.182,3.043c-0.607-1.231-1.839-1.996-3.212-1.996c-1.372,0-2.604,0.765-3.211,1.996
        L16.352,14c-0.23,0.467-0.676,0.79-1.191,0.865L3.069,16.622c-1.359,0.197-2.467,1.131-2.892,2.438
        c-0.424,1.307-0.077,2.713,0.906,3.671l8.749,8.528c0.373,0.364,0.544,0.888,0.456,1.4L8.224,44.701
        c-0.183,1.06,0.095,2.091,0.781,2.904c1.066,1.267,2.927,1.653,4.415,0.871l10.814-5.686c0.452-0.237,1.021-0.235,1.472,0
        l10.815,5.686c0.526,0.277,1.087,0.417,1.666,0.417c1.057,0,2.059-0.47,2.748-1.288c0.687-0.813,0.964-1.846,0.781-2.904
        l-2.065-12.042c-0.088-0.513,0.083-1.036,0.456-1.4L48.856,22.73z"/>
        </g>
    </symbol>
    <symbol id="loupe" viewBox="0 0 512.005 512.005">
        <g>
		<path d="M505.749,475.587l-145.6-145.6c28.203-34.837,45.184-79.104,45.184-127.317c0-111.744-90.923-202.667-202.667-202.667
			S0,90.925,0,202.669s90.923,202.667,202.667,202.667c48.213,0,92.48-16.981,127.317-45.184l145.6,145.6
			c4.16,4.16,9.621,6.251,15.083,6.251s10.923-2.091,15.083-6.251C514.091,497.411,514.091,483.928,505.749,475.587z
			 M202.667,362.669c-88.235,0-160-71.765-160-160s71.765-160,160-160s160,71.765,160,160S290.901,362.669,202.667,362.669z"/>
	    </g>
    </symbol>
    <symbol id="phone-call" viewBox="0 0 513.64 513.64">
        <g>
		<path d="M499.66,376.96l-71.68-71.68c-25.6-25.6-69.12-15.359-79.36,17.92c-7.68,23.041-33.28,35.841-56.32,30.72
			c-51.2-12.8-120.32-79.36-133.12-133.12c-7.68-23.041,7.68-48.641,30.72-56.32c33.28-10.24,43.52-53.76,17.92-79.36l-71.68-71.68
			c-20.48-17.92-51.2-17.92-69.12,0l-48.64,48.64c-48.64,51.2,5.12,186.88,125.44,307.2c120.32,120.32,256,176.641,307.2,125.44
			l48.64-48.64C517.581,425.6,517.581,394.88,499.66,376.96z"/>
	    </g>
    </symbol>
    <symbol id="email" viewBox="0 0 512 512">
        <g>
		<path d="M467,61H45C20.218,61,0,81.196,0,106v300c0,24.72,20.128,45,45,45h422c24.72,0,45-20.128,45-45V106
			C512,81.28,491.872,61,467,61z M460.786,91L256.954,294.833L51.359,91H460.786z M30,399.788V112.069l144.479,143.24L30,399.788z
			 M51.213,421l144.57-144.57l50.657,50.222c5.864,5.814,15.327,5.795,21.167-0.046L317,277.213L460.787,421H51.213z M482,399.787
			L338.213,256L482,112.212V399.787z"/>
	    </g>
    </symbol>
    <symbol id="geo" viewBox="0 0 510.222 510.222">
        <g>
		<path d="m406.478 62.747c-83.658-83.658-219.067-83.667-302.734 0-83.656 83.655-83.669 219.067 0 302.734l140.054 140.054c6.249 6.249 16.379 6.248 22.627 0l140.054-140.054c83.655-83.655 83.668-219.066-.001-302.734zm-83.7 219.033c-37.395 37.396-97.93 37.404-135.334 0-37.397-37.397-37.403-97.93 0-135.332 37.394-37.396 97.93-37.403 135.333 0 37.397 37.395 37.403 97.93.001 135.332z"/>
	    </g>
    </symbol>
</svg>